<?xml version="1.0" encoding="UTF-8"?>
<svg width="259px" height="32px" viewBox="0 0 259 32" version="1.1" xmlns="http://www.w3.org/2000/svg" xmlns:xlink="http://www.w3.org/1999/xlink">
    <!-- Generator: sketchtool 41.2 (35397) - http://www.bohemiancoding.com/sketch -->
    <title>0820A1C6-2502-4BB6-AD09-65927507BD6D</title>
    <desc>Created with sketchtool.</desc>
    <defs></defs>
    <g id="Page-1" stroke="none" stroke-width="1" fill="none" fill-rule="evenodd">
        <g id="home" transform="translate(-591.000000, -191.000000)">
            <g id="hero" transform="translate(0.000000, -2.000000)">
                <g id="content" transform="translate(299.000000, 193.000000)">
                    <g id="logo" transform="translate(291.000000, 0.000000)">
                        <g id="logo_coding.days_final">
                            <g id="Layer_1">
                                <path d="M88.980068,18.5798414 C88.6717523,18.0899404 88.1151695,17.8138211 87.5385663,17.8647161 C86.9619631,17.9156111 86.4623536,18.2849573 86.2446206,18.8212911 C85.6056625,20.3288788 84.0745187,21.2298981 82.1488109,21.2298981 C79.1778029,21.2298981 77.019479,18.9508494 77.019479,15.80906 C77.019479,12.6672707 79.1778029,10.4206116 82.1488109,10.4206116 C84.0745187,10.4206116 85.6056625,11.3216308 86.2446206,12.8262741 C86.4623536,13.3626078 86.9619631,13.731954 87.5385663,13.782849 C88.1151695,13.833744 88.6717523,13.5576247 88.980068,13.0677237 C89.2656743,12.6270614 89.3024505,12.0698464 89.0772367,11.59547 C87.8994337,9.06024915 85.2317101,7.47315968 82.1517554,7.47315968 C77.4405436,7.47315968 73.9071348,11.0477916 73.9071348,15.785504 C73.9071348,20.5232163 77.4405436,24.1302378 82.1517554,24.1302378 C85.2346546,24.1302378 87.8876557,22.5549264 89.0772367,20.0079275 C89.2862237,19.5456961 89.2497405,19.0095043 88.980068,18.5798414 L88.980068,18.5798414 Z" id="Shape" fill="#6B6B6B"></path>
                                <path d="M100.71393,7.56738392 C96.002718,7.56738392 92.3044168,11.218573 92.3044168,15.8797282 C92.2710157,19.281066 94.2934319,22.3663741 97.4257408,23.6925925 C100.55805,25.0188108 104.181062,24.3237748 106.600223,21.9325667 C109.019383,19.5413586 109.756477,15.9266682 108.46675,12.7791583 C107.177023,9.63164847 104.115426,7.57351337 100.71393,7.56738392 L100.71393,7.56738392 Z M100.71393,21.4065685 C97.7458664,21.4065685 95.4138165,18.983239 95.4138165,15.8885617 C95.3003203,13.9252078 96.2832764,12.0604223 97.9671885,11.0445089 C99.6511006,10.0285955 101.759092,10.0285955 103.443004,11.0445089 C105.126916,12.0604223 106.109872,13.9252078 105.996376,15.8885617 C106.00521,18.9744054 103.681993,21.397735 100.71393,21.397735 L100.71393,21.4065685 Z" id="Shape" fill="#6B6B6B"></path>
                                <path d="M125.00906,1.47225368 L125.00906,9.12797282 C121.563826,6.64752633 116.80309,7.16176278 113.966999,10.3206939 C111.130909,13.479625 111.130909,18.2680534 113.966999,21.4269845 C116.80309,24.5859156 121.563826,25.100152 125.00906,22.6197055 L125.00906,22.6197055 C125.00906,23.2962075 125.557473,23.8446206 126.233975,23.8446206 L126.71393,23.8446206 C127.390432,23.8446206 127.938845,23.2962075 127.938845,22.6197055 L127.938845,1.47225368 C127.938845,0.659150425 127.279694,0 126.466591,0 L126.466591,0 C125.659243,0.00807388176 125.00902,0.664865404 125.00906,1.47225368 Z M119.941563,21.3653454 C116.970555,21.3653454 114.715062,18.9037373 114.715062,15.8797282 C114.715062,12.8557191 116.896942,10.3617214 119.873839,10.3617214 C121.711212,10.3617214 122.883126,11.1479049 124.355379,12.8292186 L124.355379,18.9272933 C122.88607,20.5879955 121.790713,21.3653454 119.941563,21.3653454 Z" id="Shape" fill="#6B6B6B"></path>
                                <rect id="Rectangle-path" fill="#6B6B6B" x="132.95923" y="7.95016988" width="3.2389581" height="15.9003398" rx="1.61947905"></rect>
                                <path d="M134.593431,4.66115515 C135.117548,4.68124305 135.627123,4.48634828 136.004066,4.12163578 C136.38101,3.75692327 136.592602,3.25405234 136.589807,2.72955832 C136.548773,1.66562754 135.674348,0.824277808 134.609626,0.824277808 C133.544904,0.824277808 132.670479,1.66562754 132.629445,2.72955832 C132.621958,3.24977416 132.827552,3.75042052 133.198484,4.11523539 C133.569416,4.48005026 134.073412,4.67729156 134.593431,4.66115515 L134.593431,4.66115515 Z" id="Shape" fill="#6B6B6B"></path>
                                <path d="M149.321857,7.47021518 C147.450655,7.4545463 145.628529,8.06848992 144.148358,9.21336353 L144.148358,9.21336353 C144.148358,8.51572094 143.582807,7.95016988 142.885164,7.95016988 L142.4641,7.95016988 C141.766457,7.95016988 141.200906,8.51572094 141.200906,9.21336353 L141.200906,22.3782559 C141.200906,23.1913592 141.860056,23.8505096 142.67316,23.8505096 L142.67316,23.8505096 C143.486263,23.8505096 144.145413,23.1913592 144.145413,22.3782559 L144.145413,12.8969422 C145.54111,11.2568516 147.166478,10.3911665 148.856625,10.3911665 C151.438958,10.3911665 152.978935,12.0548131 152.978935,14.8403171 L152.978935,22.2280861 C152.978935,23.1224997 153.704001,23.8475651 154.598414,23.8475651 L154.598414,23.8475651 C155.492828,23.8475651 156.217894,23.1224997 156.217894,22.2280861 L156.217894,14.7431484 C156.220838,10.394111 153.447112,7.47021518 149.321857,7.47021518 Z" id="Shape" fill="#6B6B6B"></path>
                                <path d="M201.271801,1.22491506 L201.271801,9.12797282 C197.826566,6.64752633 193.06583,7.16176278 190.22974,10.3206939 C187.393649,13.479625 187.393649,18.2680534 190.22974,21.4269845 C193.06583,24.5859156 197.826566,25.100152 201.271801,22.6197055 L201.271801,22.6197055 C201.271801,23.2962075 201.820214,23.8446206 202.496716,23.8446206 L202.97667,23.8446206 C203.653172,23.8446206 204.201586,23.2962075 204.201586,22.6197055 L204.201586,1.21902605 C204.198344,0.544825077 203.650879,-7.79184358e-06 202.97667,-1.42108547e-13 L202.481993,-1.42108547e-13 C201.811248,0.00806242447 201.271752,0.554121202 201.271801,1.22491506 L201.271801,1.22491506 Z M196.221971,21.3653454 C193.253907,21.3653454 190.998414,18.9037373 190.998414,15.8797282 C190.998414,12.8557191 193.17735,10.3617214 196.154247,10.3617214 C197.988675,10.3617214 199.157644,11.1479049 200.629898,12.8292186 L200.629898,18.9272933 C199.148811,20.5879955 198.056399,21.3653454 196.221971,21.3653454 Z" id="Shape" fill="#6B6B6B"></path>
                                <path d="M221.294451,9.16330691 L221.294451,9.16330691 C217.846293,6.65107455 213.057412,7.15012239 210.201314,10.3193192 C207.345217,13.488516 207.345217,18.30333 210.201314,21.4725268 C213.057412,24.6417236 217.846293,25.1407714 221.294451,22.6285391 L221.294451,22.6285391 C221.294451,23.2985362 221.837591,23.8416761 222.507588,23.8416761 L223.025821,23.8416761 C223.695818,23.8416761 224.238958,23.2985362 224.238958,22.6285391 L224.238958,9.15447339 C224.238958,8.4844763 223.695818,7.94133635 223.025821,7.94133635 L222.507588,7.94133635 C222.184307,7.94132778 221.874395,8.07035195 221.646632,8.29977338 C221.418869,8.52919481 221.292097,8.84003516 221.294451,9.16330691 Z M216.226954,21.397735 C213.253001,21.397735 210.994564,18.9214043 210.994564,15.8797282 C210.994564,12.8380521 213.179388,10.394111 216.165119,10.394111 C217.999547,10.394111 219.183239,11.1685164 220.655493,12.8321631 L220.655493,18.9596829 C219.171461,20.6115515 218.07316,21.397735 216.226954,21.397735 Z" id="Shape" fill="#6B6B6B"></path>
                                <path d="M241.049151,8.83352208 L235.73137,20.5320498 L230.021971,8.798188 C229.768396,8.27610731 229.239067,7.94456196 228.658664,7.94428086 L228.658664,7.94428086 C228.13634,7.94453377 227.650912,8.2135805 227.373866,8.65637578 C227.09682,9.09917106 227.067157,9.65337898 227.295357,10.1232163 L234.097169,24.1184598 L231.573726,29.6482446 C231.359148,30.1179413 231.398339,30.6645491 231.677732,31.0988285 C231.957124,31.5331079 232.43831,31.7953597 232.9547,31.7947905 L232.9547,31.7947905 C233.54823,31.795972 234.08789,31.4507739 234.335674,30.9114383 L243.816988,10.0937712 C244.030444,9.62388135 243.990259,9.07768671 243.710331,8.64409634 C243.430404,8.21050598 242.949169,7.949055 242.433069,7.95016988 L242.433069,7.95016988 C241.838474,7.94783325 241.297377,8.29321415 241.049151,8.83352208 Z" id="Shape" fill="#6B6B6B"></path>
                                <path d="M255.076784,14.6518686 L252.088109,14.1306908 C249.514609,13.7420159 249.514609,12.6083805 249.514609,12.2344281 C249.514609,11.0065685 250.872027,10.1732729 252.894904,10.1732729 C254.32299,10.1732729 256.151529,10.8563986 256.746319,12.5112118 C256.961268,13.1001133 257.49128,13.8274066 258.103737,13.8274066 L258.168516,13.8274066 C258.633749,13.8274066 259.069536,13.2620612 259.346319,12.8822197 C259.615104,12.4401259 259.680546,11.9037141 259.525934,11.409966 C258.695583,9.07202718 256.219253,7.58210646 252.903737,7.58210646 C249.055266,7.58210646 246.469989,9.50192525 246.469989,12.419932 C246.469989,15.4792752 249.087656,16.5098528 251.275425,16.8366931 L254.685164,17.410872 C255.350623,17.5109853 256.899434,17.8908267 256.899434,19.3336353 C256.899434,20.6586636 255.42718,21.5449604 253.260023,21.5449604 C250.951529,21.5449604 249.485164,21.0178935 248.899207,19.4484711 C248.696036,18.9066818 248.16308,18.809513 247.571234,18.809513 L247.485844,18.809513 C247.020612,18.809513 246.578935,18.7682899 246.308041,19.1510759 C246.041559,19.4717108 245.972577,19.9127419 246.128426,20.2994337 C247.073613,22.9494904 249.582333,24.3392978 253.195243,24.3392978 C257.28222,24.3392978 259.920498,22.3134768 259.920498,19.2335221 C259.914609,16.7542469 258.286297,15.1789354 255.076784,14.6518686 Z" id="Shape" fill="#6B6B6B"></path>
                                <path d="M173.469762,7.98255946 C172.751302,7.98255946 172.291959,8.47429219 172.121178,9.13975085 C170.63052,8.02454655 168.812047,7.43530314 166.950623,7.46432616 C162.39547,7.46432616 159.000453,10.997735 159.000453,15.7089468 C159.000453,20.184598 162.239411,23.8269536 166.638505,23.8269536 C168.393338,23.8516065 170.103363,23.2725887 171.48222,22.186863 L171.48222,23.5560589 L171.48222,23.5560589 L171.48222,23.8740657 C171.48222,26.8980747 170.009966,28.7766704 167.065459,28.7766704 C164.90419,28.7766704 163.402492,27.8226501 162.751755,26.2237826 C162.557304,25.644505 162.017131,25.2520816 161.406116,25.2462061 C160.896749,25.2481023 160.424551,25.5131572 160.157644,25.9469989 C159.879149,26.383309 159.841438,26.9312349 160.057531,27.4015855 C161.235334,30.0516421 163.752888,31.7005663 167.124349,31.7005663 C171.835561,31.7005663 174.732956,28.5558324 174.732956,23.8740657 L174.732956,9.52548131 C174.7094,8.67451869 174.320725,7.98255946 173.469762,7.98255946 Z M166.947678,21.003171 C164.10034,21.003171 161.971461,18.6298981 161.971461,15.7030578 C161.971461,12.611325 163.911891,10.2822197 166.856399,10.2822197 C168.873386,10.2822197 170.304417,11.1655719 171.48222,12.796829 L171.48222,18.4797282 C170.292639,20.1109853 168.964666,21.003171 166.947678,21.003171 Z" id="Shape" fill="#6B6B6B"></path>
                                <rect id="Rectangle-path" fill="#529BD1" transform="translate(10.419175, 11.318723) rotate(144.420000) translate(-10.419175, -11.318723) " x="-0.429862308" y="9.06911943" width="21.6980747" height="4.49920725" rx="2.24960362"></rect>
                                <path d="M16.8838052,27.9463194 L2.18776897,18.1970555 C1.15565165,17.5079931 0.874075516,16.114586 1.55764439,15.0788222 L1.55764439,15.0788222 C1.71535707,14.839626 1.9034092,14.6218814 2.11710079,14.4310306 C2.31880825,14.2517069 2.53334677,14.0873586 2.7590034,13.9392978 L3.38323896,13.591846 L19.3719139,24.1920725 C20.4040313,24.8811348 20.6856074,26.274542 20.0020385,27.3103058 L20.0020385,27.3103058 C19.3148712,28.3444601 17.9210961,28.6287428 16.8838052,27.9463194 L16.8838052,27.9463194 Z" id="Shape" fill="#72B9FA"></path>
                                <polygon id="Shape" fill="#4B91BC" points="8.10917327 15.7383918 4.81721404 12.5612684 3.37734994 13.591846 7.39071348 16.2536806"></polygon>
                                <rect id="Rectangle-path" fill="#F7B91E" transform="translate(35.487746, 16.197742) rotate(101.340000) translate(-35.487746, -16.197742) " x="23.0501473" y="13.9481379" width="24.8751982" height="4.49920725" rx="2.24960362"></rect>
                                <rect id="Rectangle-path" fill="#529BD1" transform="translate(53.427916, 21.127917) rotate(-35.580000) translate(-53.427916, -21.127917) " x="42.5788788" y="18.8783134" width="21.6980747" height="4.49920725" rx="2.24960362"></rect>
                                <path d="M46.9737259,4.50215176 L61.6697622,14.2514156 C62.7018795,14.940478 62.9834556,16.3338851 62.2998867,17.3696489 L62.2998867,17.3696489 C62.1421741,17.6088452 61.9541219,17.8265897 61.7404304,18.0174405 C61.5387229,18.1967642 61.3241844,18.3611126 61.0985277,18.5091733 L60.4625142,18.8448471 L44.4738392,8.24462061 C43.4417219,7.55555825 43.1601457,6.16215113 43.8437146,5.12638732 L43.8437146,5.12638732 C44.1757647,4.62825378 44.6922292,4.28256397 45.2793277,4.16547566 C45.8664262,4.04838735 46.4759892,4.16950722 46.9737259,4.50215176 Z" id="Shape" fill="#72B9FA"></path>
                                <polygon id="Shape" fill="#4B91BC" points="55.7395243 16.7100793 59.0314836 19.8872027 60.4713477 18.8566251 56.4609287 16.1947905"></polygon>
                            </g>
                        </g>
                    </g>
                </g>
            </g>
        </g>
    </g>
</svg>